{
  "accessors": [
    {
      "bufferView": 2,
      "componentType": 5126,
      "count": 322,
      "max": [
        2.229177713394165,
        0.22919082641601563,
        1.841764211654663
      ],
      "min": [
        1.5212504863739014,
        -0.07196548581123352,
        0.4364001750946045
      ],
      "type": "VEC3"
    },
    {
      "bufferView": 2,
      "byteOffset": 3864,
      "componentType": 5126,
      "count": 322,
      "max": [
        0.9879352450370789,
        1.0,
        0.7444817423820496
      ],
      "min": [
        -0.9879353046417236,
        -1.0,
        -0.7444822192192078
      ],
      "type": "VEC3"
    },
    {
      "bufferView": 1,
      "componentType": 5126,
      "count": 322,
      "max": [
        0.5,
        1.0
      ],
      "min": [
        -0.3582352101802826,
        -0.3617168664932251
      ],
      "type": "VEC2"
    },
    {
      "bufferView": 0,
      "componentType": 5125,
      "count": 384,
      "type": "SCALAR"
    },
    {
      "bufferView": 2,
      "byteOffset": 7728,
      "componentType": 5126,
      "count": 322,
      "max": [
        2.222458600997925,
        0.22633245587348938,
        1.828425407409668
      ],
      "min": [
        1.5279695987701416,
        -0.06910710036754608,
        0.449739009141922
      ],
      "type": "VEC3"
    },
    {
      "bufferView": 2,
      "byteOffset": 11592,
      "componentType": 5126,
      "count": 322,
      "max": [
        0.9879353046417236,
        1.0,
        0.744482159614563
      ],
      "min": [
        -0.9879351854324341,
        -1.0,
        -0.7444819808006287
      ],
      "type": "VEC3"
    },
    {
      "bufferView": 1,
      "byteOffset": 2576,
      "componentType": 5126,
      "count": 322,
      "max": [
        0.5,
        1.0
      ],
      "min": [
        -0.3582352101802826,
        -0.3617168664932251
      ],
      "type": "VEC2"
    },
    {
      "bufferView": 0,
      "byteOffset": 1536,
      "componentType": 5125,
      "count": 384,
      "type": "SCALAR"
    },
    {
      "bufferView": 2,
      "byteOffset": 15456,
      "componentType": 5126,
      "count": 4,
      "max": [
        0.4740152359008789,
        0.4740152359008789,
        0.0
      ],
      "min": [
        -0.4740152359008789,
        -0.4740152359008789,
        0.0
      ],
      "type": "VEC3"
    },
    {
      "bufferView": 2,
      "byteOffset": 15504,
      "componentType": 5126,
      "count": 4,
      "max": [
        0.0,
        0.0,
        1.0
      ],
      "min": [
        0.0,
        0.0,
        1.0
      ],
      "type": "VEC3"
    },
    {
      "bufferView": 1,
      "byteOffset": 5152,
      "componentType": 5126,
      "count": 4,
      "max": [
        1.0,
        1.0
      ],
      "min": [
        0.0,
        0.0
      ],
      "type": "VEC2"
    },
    {
      "bufferView": 1,
      "byteOffset": 5184,
      "componentType": 5126,
      "count": 4,
      "max": [
        1.0,
        1.0
      ],
      "min": [
        0.0,
        0.0
      ],
      "type": "VEC2"
    },
    {
      "bufferView": 0,
      "byteOffset": 3072,
      "componentType": 5125,
      "count": 6,
      "type": "SCALAR"
    }
  ],
  "asset": {
    "extras": {
      "author": "Delincoter (https://sketchfab.com/Delincoter)",
      "license": "CC-BY-4.0 (http://creativecommons.org/licenses/by/4.0/)",
      "source": "https://sketchfab.com/3d-models/magic-diamond-6d3498168d5249d4a837f5a12bad69f3",
      "title": "Magic Diamond"
    },
    "generator": "Sketchfab-12.64.0",
    "version": "2.0"
  },
  "bufferViews": [
    {
      "buffer": 0,
      "byteLength": 3096,
      "name": "floatBufferViews",
      "target": 34963
    },
    {
      "buffer": 0,
      "byteLength": 5216,
      "byteOffset": 3096,
      "byteStride": 8,
      "name": "floatBufferViews",
      "target": 34962
    },
    {
      "buffer": 0,
      "byteLength": 15552,
      "byteOffset": 8312,
      "byteStride": 12,
      "name": "floatBufferViews",
      "target": 34962
    }
  ],
  "buffers": [
    {
      "byteLength": 23864,
      "uri": "scene.bin"
    }
  ],
  "extensionsUsed": [
    "KHR_materials_clearcoat",
    "KHR_materials_transmission"
  ],
  "images": [
    {
      "uri": "textures/01_-_Default_baseColor.png"
    }
  ],
  "materials": [
    {
      "alphaMode": "BLEND",
      "doubleSided": true,
      "extensions": {
        "KHR_materials_clearcoat": {
          "clearcoatFactor": 1.0,
          "clearcoatRoughnessFactor": 0.0
        }
      },
      "name": "02_-_Default",
      "pbrMetallicRoughness": {
        "baseColorFactor": [
          0.2099684709666353,
          0.2099684709666353,
          0.2099684709666353,
          0.8
        ],
        "roughnessFactor": 0.0
      }
    },
    {
      "alphaMode": "BLEND",
      "doubleSided": true,
      "extensions": {
        "KHR_materials_transmission": {
          "transmissionFactor": 0.4930449695121951
        }
      },
      "name": "Material_2",
      "pbrMetallicRoughness": {
        "baseColorFactor": [
          0.0,
          0.0,
          0.0,
          0.5069550304878049
        ],
        "metallicFactor": 0.0
      }
    },
    {
      "alphaMode": "BLEND",
      "doubleSided": true,
      "emissiveFactor": [
        0.005576302863528073,
        1.0,
        0.8863673008676304
      ],
      "name": "01_-_Default",
      "pbrMetallicRoughness": {
        "baseColorFactor": [
          0.588235,
          0.588235,
          0.588235,
          1.0
        ],
        "baseColorTexture": {
          "index": 0
        },
        "metallicFactor": 0.0,
        "roughnessFactor": 0.8929713596497552
      }
    }
  ],
  "meshes": [
    {
      "name": "Box001_02 - Default_0",
      "primitives": [
        {
          "attributes": {
            "NORMAL": 1,
            "POSITION": 0,
            "TEXCOORD_0": 2
          },
          "indices": 3,
          "material": 0,
          "mode": 4
        }
      ]
    },
    {
      "name": "Box001_Material #2_0",
      "primitives": [
        {
          "attributes": {
            "NORMAL": 5,
            "POSITION": 4,
            "TEXCOORD_0": 6
          },
          "indices": 7,
          "material": 1,
          "mode": 4
        }
      ]
    },
    {
      "name": "Plane001_01 - Default_0",
      "primitives": [
        {
          "attributes": {
            "NORMAL": 9,
            "POSITION": 8,
            "TEXCOORD_0": 10,
            "TEXCOORD_1": 11
          },
          "indices": 12,
          "material": 2,
          "mode": 4
        }
      ]
    }
  ],
  "nodes": [
    {
      "children": [
        1
      ],
      "matrix": [
        1.0,
        0.0,
        0.0,
        0.0,
        0.0,
        2.220446049250313e-16,
        -1.0,
        0.0,
        0.0,
        1.0,
        2.220446049250313e-16,
        0.0,
        0.0,
        0.0,
        0.0,
        1.0
      ],
      "name": "Sketchfab_model"
    },
    {
      "children": [
        2
      ],
      "matrix": [
        1.0,
        0.0,
        0.0,
        0.0,
        0.0,
        0.0,
        1.0,
        0.0,
        0.0,
        -1.0,
        0.0,
        0.0,
        0.0,
        0.0,
        0.0,
        1.0
      ],
      "name": "357f04aea819466196d09dc888580e15.fbx"
    },
    {
      "children": [
        3,
        7
      ],
      "name": "RootNode"
    },
    {
      "children": [
        4
      ],
      "matrix": [
        1.0,
        0.0,
        0.0,
        0.0,
        0.0,
        2.220446049250313e-16,
        -1.0,
        0.0,
        0.0,
        1.0,
        2.220446049250313e-16,
        0.0,
        -4.8160552978515625e-05,
        1.1390821933746338,
        -0.12192301452159882,
        1.0
      ],
      "name": "Box001"
    },
    {
      "children": [
        5,
        6
      ],
      "matrix": [
        1.0,
        0.0,
        -0.0,
        0.0,
        0.0,
        1.0,
        0.0,
        0.0,
        0.0,
        0.0,
        1.0,
        0.0,
        -1.8752140998840332,
        -0.07861267030239105,
        -1.1390821933746338,
        1.0
      ],
      "name": "Object_4"
    },
    {
      "mesh": 0,
      "name": "Box001_02 - Default_0"
    },
    {
      "mesh": 1,
      "name": "Box001_Material #2_0"
    },
    {
      "children": [
        8
      ],
      "matrix": [
        0.5736895799636841,
        0.0,
        0.0,
        0.0,
        0.0,
        0.5736895799636835,
        2.507676798584818e-08,
        0.0,
        0.0,
        -4.371138828673792e-08,
        0.999999999999999,
        0.0,
        -4.816788714379072e-05,
        1.1390820741653442,
        -0.12363174557685852,
        1.0
      ],
      "name": "Plane001"
    },
    {
      "mesh": 2,
      "name": "Plane001_01 - Default_0"
    }
  ],
  "samplers": [
    {
      "magFilter": 9729,
      "minFilter": 9987,
      "wrapS": 10497,
      "wrapT": 10497
    }
  ],
  "scene": 0,
  "scenes": [
    {
      "name": "Sketchfab_Scene",
      "nodes": [
        0
      ]
    }
  ],
  "textures": [
    {
      "sampler": 0,
      "source": 0
    }
  ]
}
