<svg xmlns="http://www.w3.org/2000/svg" version="1.1" xmlns:xlink="http://www.w3.org/1999/xlink" xmlns:svgjs="http://svgjs.dev/svgjs" width="2000" height="1247" viewBox="0 0 2000 1247"><g transform="matrix(1,0,0,1,-1.2121212121212466,0.504858299595071)"><svg viewBox="0 0 396 247" data-background-color="#4d88db" preserveAspectRatio="xMidYMid meet" height="1247" width="2000" xmlns="http://www.w3.org/2000/svg" xmlns:xlink="http://www.w3.org/1999/xlink"><g id="tight-bounds" transform="matrix(1,0,0,1,0.2400000000000091,-0.09999999999999432)"><svg viewBox="0 0 395.52 247.2" height="247.2" width="395.52"><g><svg></svg></g><g><svg viewBox="0 0 395.52 247.2" height="247.2" width="395.52"><g transform="matrix(1,0,0,1,88.48382163934426,47.215199999999996)"><svg viewBox="0 0 218.55235672131147 152.7696" height="152.7696" width="218.55235672131147"><g><svg viewBox="0 0 218.55235672131147 152.7696" height="152.7696" width="218.55235672131147"><g><svg viewBox="0 0 218.55235672131147 152.7696" height="152.7696" width="218.55235672131147"><g><svg viewBox="0 0 218.55235672131147 152.7696" height="152.7696" width="218.55235672131147"><g id="textblocktransform"><svg viewBox="0 0 218.55235672131147 152.7696" height="152.7696" width="218.55235672131147" id="textblock"><g><svg viewBox="0 0 218.55235672131147 152.7696" height="152.7696" width="218.55235672131147"><g transform="matrix(1,0,0,1,0,0)"><svg width="218.55235672131147" viewBox="-2.75 -35.20000076293945 65.44999694824219 45.75" height="152.7696" data-palette-color="#ffffff"><path d="M4.9 10.55Q2.2 10.55 0.5 9.33-1.2 8.1-1.93 6.6-2.65 5.1-2.75 4.1L-2.75 4.1Q-2.75 3.2-1.88 2.1-1 1 0.13 0.23 1.25-0.55 1.85-0.55L1.85-0.55Q2.3-0.55 2.35 0.1L2.35 0.1Q2.8 3.45 3.88 5.1 4.95 6.75 7.05 6.75L7.05 6.75Q9.5 6.75 10.88 4.2 12.25 1.65 13.1-4.35L13.1-4.35 16.75-29.7 16.45-29.7Q15.8-29.7 14.1-30L14.1-30Q11.5-30.45 9.9-30.45L9.9-30.45Q8.35-30.45 7.03-30.08 5.7-29.7 4.6-28.7L4.6-28.7Q4.4-28.55 4.08-28.23 3.75-27.9 3.45-27.9L3.45-27.9Q3.1-27.9 3.1-28.45L3.1-28.45Q3.1-28.85 3.2-29.35L3.2-29.35Q3.85-31.8 6.18-33.25 8.5-34.7 11.65-34.7L11.65-34.7Q13.1-34.7 15.35-34.45L15.35-34.45Q16-34.4 17.4-34.3 18.8-34.2 19.7-34.2L19.7-34.2Q21.4-34.2 23.5-34.7L23.5-34.7Q22.2-31.15 21.7-27.55L21.7-27.55 18.85-7.25Q18.1-1.75 16.13 2.25 14.15 6.25 11.25 8.4 8.35 10.55 4.9 10.55L4.9 10.55ZM31.95 0.5Q31.5 0.5 31.4 0.35 31.3 0.2 31.4-0.2L31.4-0.2Q32.35-8.8 32.6-12.25 32.85-15.7 32.85-20.75L32.85-20.75Q32.85-24.55 32.7-26.43 32.55-28.3 32.1-29.1 31.65-29.9 30.7-29.9L30.7-29.9Q29.4-29.9 28.52-28.78 27.65-27.65 26.8-25.65L26.8-25.65Q26.6-25.1 26.4-24.9 26.2-24.7 25.9-24.7L25.9-24.7Q25.65-24.7 25.57-24.9 25.5-25.1 25.5-25.55L25.5-25.55Q25.5-27.7 26.57-29.95 27.65-32.2 29.42-33.7 31.2-35.2 33.25-35.2L33.25-35.2Q35.2-35.2 36.2-33.65 37.2-32.1 37.57-29.08 37.95-26.05 37.95-20.95L37.95-20.95Q37.95-16.2 37.75-14.4L37.75-14.4 37.8-14.4 43.05-25.2 45.1-29.5Q45.7-30.65 46.67-31.68 47.65-32.7 48.6-33.33 49.55-33.95 50.05-33.95L50.05-33.95Q50.4-33.95 50.35-33.55L50.35-33.55Q49.85-30.45 49.85-28.15L49.85-28.15Q49.85-24.65 50.35-16.75L50.35-16.75Q50.7-11.2 50.8-10.55L50.8-10.55 50.85-10.55Q51-10.9 51.3-11.53 51.6-12.15 51.95-12.9L51.95-12.9 54.4-18.05Q55.7-20.9 56.4-23 57.1-25.1 57.1-26.65L57.1-26.65Q57.1-27.9 56.72-28.55 56.35-29.2 55.97-29.5 55.6-29.8 55.55-29.9L55.55-29.9Q55.4-30.25 56.22-31.58 57.05-32.9 58.15-34.05 59.25-35.2 59.9-35.2L59.9-35.2Q60.4-35.2 61.07-34.52 61.75-33.85 62.22-32.77 62.7-31.7 62.7-30.55L62.7-30.55Q62.7-29.4 62.17-27.9 61.65-26.4 60.45-23.7L60.45-23.7 51.45-4.6Q50.35-2.15 48.6-0.55L48.6-0.55Q47.45 0.5 46.9 0.5L46.9 0.5Q46.45 0.5 46.35 0.1 46.25-0.3 46.25-1.07 46.25-1.85 46.25-2.15L46.25-2.15Q46.25-5.2 45.5-14.1L45.5-14.1Q45.1-18.6 44.95-21.5L44.95-21.5 44.9-21.5Q43.2-18.7 41.75-15.55 40.3-12.4 39.3-10.08 38.3-7.75 38.05-7.15L38.05-7.15 36.9-4.45Q35.65-1.8 33.55-0.2L33.55-0.2Q33.45-0.15 32.97 0.18 32.5 0.5 31.95 0.5L31.95 0.5Z" opacity="1" transform="matrix(1,0,0,1,0,0)" fill="#ffffff" class="wordmark-text-0" data-fill-palette-color="primary" id="text-0"></path></svg></g></svg></g></svg></g></svg></g></svg></g></svg></g></svg></g><g><path d="M232.876 0c68.262 0 123.6 55.338 123.6 123.6 0 68.262-55.338 123.6-123.6 123.6-30.402 0-58.24-10.976-79.768-29.183l11.147 0c19.26 14.022 42.974 22.294 68.621 22.295 64.458 0 116.712-52.254 116.712-116.712 0-64.458-52.254-116.712-116.712-116.712-25.647 0-49.361 8.272-68.621 22.295l-11.147 0c21.528-18.206 49.366-29.183 79.768-29.183z" fill="#ffffff" stroke="transparent" data-fill-palette-color="tertiary"></path></g></svg></g><defs></defs></svg><rect width="395.52" height="247.2" fill="none" stroke="none" visibility="hidden"></rect></g></svg></g></svg>